<?xml version="1.0" encoding="UTF-8"?>
<svg id="Capa_1" data-name="Capa 1" xmlns="http://www.w3.org/2000/svg" viewBox="0 0 1920 1080">
  <defs>
    <style>
      .cls-1 {
        fill: #2e5bff;
      }

      .cls-2 {
        fill: #ffffff;
      }

      .cls-3 {
        fill: #f5a623;
      }

      .cls-4 {
        fill: #648292;
      }
    </style>
  </defs>
  <rect class="cls-4" x="438.64" y="374.56" width="265.98" height="489.56"/>
  <rect class="cls-4" x="82.06" y="609.71" width="265.98" height="254.42"/>
  <polygon class="cls-3" points="1837.94 169.23 1769.56 169.23 1769.56 101.78 1702.11 101.78 1702.11 33.41 1837.94 33.41 1837.94 169.23"/>
  <path class="cls-1" d="M1471.73,126.73h-676.52v734.34h837.96c57.74,0,104.55-46.81,104.55-104.55v-161.44h-265.98v98.3h-410.54v-398.97h410.54v98.3h265.98v-161.44c0-57.74-46.81-104.55-104.55-104.55h-161.44Z"/>
  <g>
    <path class="cls-2" d="M146.96,944.18c13.1,0,24.57,5.96,31.45,16.36l3.13,4.73,22.92-14.22-3.43-5.04c-11.9-17.48-32.11-27.91-54.07-27.91-37,0-64.89,27.62-64.89,64.24s27.9,64.24,64.89,64.24c21.95,0,42.17-10.43,54.07-27.91l3.43-5.04-22.92-14.22-3.13,4.73c-6.88,10.4-18.34,16.36-31.45,16.36-21.57,0-37.84-16.41-37.84-38.17s16.26-38.17,37.84-38.17Z"/>
    <path class="cls-2" d="M432.89,960.27c0-22.91-17.63-40.19-41.01-40.19h-51.64v124.55h26.73v-44.82h7.77l33.7,44.82h32.87l-35.79-46.87c16.33-5.13,27.37-19.65,27.37-37.49ZM366.97,945.82h24.59c8.27,0,14.28,6.14,14.28,14.61s-6,14.61-14.28,14.61h-24.59v-29.22Z"/>
    <polygon class="cls-2" points="599.14 994.9 652.63 994.9 652.63 969.15 599.14 969.15 599.14 945.82 658.03 945.82 658.03 920.07 572.41 920.07 572.41 1044.63 658.85 1044.63 658.85 1018.88 599.14 1018.88 599.14 994.9"/>
    <path class="cls-2" d="M848.54,920.07h-49.36v124.55h49.36c35.97,0,63.09-26.77,63.09-62.28s-27.12-62.28-63.09-62.28ZM825.92,945.82h22.46c20.64,0,36.21,15.7,36.21,36.53s-15.56,36.53-36.21,36.53h-22.46v-73.06Z"/>
    <rect class="cls-2" x="1050.98" y="920.07" width="26.73" height="124.55"/>
    <polygon class="cls-2" points="1214.8 945.82 1250.96 945.82 1250.96 1044.63 1277.52 1044.63 1277.52 945.82 1313.67 945.82 1313.67 920.07 1214.8 920.07 1214.8 945.82"/>
    <rect class="cls-2" x="1450.9" y="920.07" width="26.73" height="124.55"/>
    <path class="cls-2" d="M1686.99,920.07h-25.69l-50.73,124.55h28.67l10.96-27.32h47.39l10.96,27.32h29.16l-50.72-124.55ZM1660.42,991.73l13.48-33.83,13.48,33.83h-26.95Z"/>
  </g>
</svg>
