<svg xmlns="http://www.w3.org/2000/svg" viewBox="0 0 48 32" fill="none">
  <rect width="48" height="32" rx="4" fill="#1A1F71"/>
  <path d="M19.5 21H17L18.9 11H21.4L19.5 21Z" fill="white"/>
  <path d="M29.2 11.2C28.7 11 27.9 10.8 26.9 10.8C24.4 10.8 22.6 12.1 22.6 14C22.6 15.4 23.9 16.2 24.9 16.7C25.9 17.2 26.2 17.5 26.2 17.9C26.2 18.6 25.3 18.9 24.5 18.9C23.4 18.9 22.8 18.7 21.9 18.3L21.5 18.1L21.1 20.7C21.8 21 22.9 21.3 24.1 21.3C26.8 21.3 28.5 20 28.5 18C28.5 16.9 27.8 16.1 26.3 15.4C25.4 14.9 24.8 14.6 24.8 14.2C24.8 13.8 25.3 13.4 26.2 13.4C27 13.4 27.6 13.6 28.1 13.8L28.4 13.9L29.2 11.2Z" fill="white"/>
  <path d="M32.8 11H30.8C30.2 11 29.7 11.2 29.5 11.8L25.8 21H28.5L29 19.5H32.2L32.5 21H34.9L32.8 11ZM29.8 17.5L31.1 13.9L31.8 17.5H29.8Z" fill="white"/>
  <path d="M16.5 11L14 17.9L13.7 16.5C13.2 14.9 11.7 13.2 10 12.3L12.3 21H15L19.2 11H16.5Z" fill="white"/>
  <path d="M12.5 11H8.5L8.5 11.2C11.7 12 13.8 13.9 14.5 16.1L13.7 11.8C13.6 11.2 13.1 11 12.5 11Z" fill="#F9A533"/>
</svg>
